<svg id="Слой_1" data-name="Слой 1" xmlns="http://www.w3.org/2000/svg" viewBox="0 0 1431 822.5">
    <defs>
        <style>.cls-1{fill:#fff;}.cls-2,.cls-4{fill:none;}.cls-2,.cls-3,.cls-4{stroke:#fff;stroke-miterlimit:10;}.cls-2{stroke-linecap:round;stroke-width:9px;}.cls-3{stroke-width:21px;}.cls-4{stroke-width:13px;}</style>
    </defs>
    <path d="M46,537H1213a0,0,0,0,1,0,0V663a0,0,0,0,1,0,0H108.3A62.3,62.3,0,0,1,46,600.7V537A0,0,0,0,1,46,537Z" />
    <path d="M1309.43,668S1298,289,1309,280s183-7,198,0,148,162,162,174,90,45,95,55,0,260,0,260-9,22-39,25-140,0-140,0Z" transform="translate(-372 -131)" />
    <path class="cls-1" d="M1345,454V313h125s107,82,141,151H1345Z" transform="translate(-372 -131)" />
    <line class="cls-2" x1="983" y1="404" x2="1062" y2="404" />
    <rect x="1291" y="490" width="140" height="150" rx="44.63" />
    <circle class="cls-3" cx="1144.5" cy="701.5" r="110.5" />
    <circle class="cls-1" cx="1146" cy="700" r="35.5" />
    <circle class="cls-3" cx="567" cy="701" r="110.5" />
    <circle class="cls-1" cx="568.5" cy="699.5" r="35.5" />
    <circle class="cls-3" cx="284" cy="699" r="110.5" />
    <circle class="cls-1" cx="285.5" cy="697.5" r="35.5" />
    <rect y="74" width="913" height="427" rx="213.5" />
    <rect x="515" y="35" width="104" height="54" />
    <rect x="487" width="161" height="46" rx="22.9" />
    <line class="cls-4" x1="219.98" y1="74" x2="219.98" y2="263" />
    <line class="cls-4" x1="342.5" y1="74" x2="342.5" y2="263" />
    <line class="cls-4" x1="219.98" y1="128.81" x2="342.5" y2="128.81" />
    <line class="cls-4" x1="219.98" y1="191.11" x2="342.5" y2="191.11" />
    <path class="cls-4" d="M1010.5,466.5a71,71,0,0,1-1F42,0c0-39.21,71-168,71-168S1010.5,427.29,1010.5,466.5Z" transform="translate(-372 -131)" />
    <path class="cls-1" d="M888.5,451.5c1.72,6.82,3.43,13.35,5.5,19.69a110.48,110.48,0,0,0,7.52,18.06,60.14,60.14,0,0,0,11.42,15.2c4.61,4.47,10.23,7.9,16.56,11.05a35.63,35.63,0,0,1-20.45-6.11,25.44,25.44,0,0,1-2.25-1.6c-.72-.58-1.48-1.12-2.14-1.76s-1.37-1.24-2-1.89l-1.88-2A27.53,27.53,0,0,1,899,500l-.85-1.09-.79-1.13c-1.06-1.51-2-3.1-2.88-4.68a62.28,62.28,0,0,1-6.59-20.47,64.86,64.86,0,0,1-.65-10.59A47.63,47.63,0,0,1,888.5,451.5Z" transform="translate(-372 -131)" />
</svg>